<?xml version="1.0" standalone="no"?>
<!DOCTYPE svg PUBLIC "-//W3C//DTD SVG 20010904//EN"
 "http://www.w3.org/TR/2001/REC-SVG-20010904/DTD/svg10.dtd">
<svg version="1.0" xmlns="http://www.w3.org/2000/svg"
 width="219.000000pt" height="219.000000pt" viewBox="0 0 219.000000 219.000000"
 preserveAspectRatio="xMidYMid meet">

<g transform="translate(0.000000,219.000000) scale(0.100000,-0.100000)"
fill="#000000" stroke="none">
<path d="M953 2120 c-13 -5 -23 -16 -23 -25 0 -19 0 -19 40 2 26 13 35 14 38
4 4 -11 6 -11 13 0 11 19 62 -29 56 -53 -3 -9 -1 -18 5 -20 5 -2 16 -59 24
-127 8 -67 17 -127 20 -132 12 -19 33 -6 102 62 40 39 72 69 72 67 0 -2 -15
-42 -34 -88 -18 -46 -31 -92 -28 -103 4 -16 9 -9 19 28 8 26 21 58 29 70 7 11
22 46 33 76 34 97 42 109 62 98 18 -9 18 -12 4 -39 -20 -38 -19 -53 1 -17 8
15 27 32 41 38 33 12 22 24 -42 43 -52 16 -64 14 -47 -7 9 -10 -9 -34 -82
-106 -51 -51 -96 -89 -99 -85 -3 5 -17 68 -32 139 -15 72 -29 133 -32 138 -16
27 -107 51 -140 37z"/>
<path d="M1050 1994 c-6 -14 -10 -29 -10 -32 0 -10 -38 -42 -50 -42 -6 0 -10
17 -11 38 0 32 -4 26 -24 -43 -24 -78 -28 -127 -6 -72 20 51 33 32 27 -40 l-5
-68 33 100 c18 55 41 119 49 143 9 23 14 42 11 42 -2 0 -9 -12 -14 -26z"/>
<path d="M450 1858 c-56 -21 -158 -127 -144 -150 6 -10 5 -386 -1 -482 -4 -53
-8 -64 -43 -100 -66 -68 -87 -118 -87 -211 0 -91 19 -137 85 -209 50 -55 115
-89 244 -131 170 -55 236 -108 263 -211 8 -32 23 -75 34 -95 l19 -37 -31 -7
c-17 -4 -33 -4 -37 0 -4 4 -8 39 -8 78 -3 97 -2 94 -20 111 -14 14 -84 23 -84
11 0 -2 11 -15 25 -29 27 -27 31 -26 15 5 -14 25 10 26 32 2 17 -19 31 -203
16 -203 -4 0 -12 -9 -18 -21 -9 -16 -8 -26 4 -44 20 -30 20 -35 1 -35 -9 0
-18 12 -21 30 -8 38 -22 39 -26 3 -2 -17 -9 -28 -18 -28 -10 0 -14 8 -12 23 3
18 -2 22 -21 22 -14 0 -38 3 -55 6 -28 6 -32 4 -40 -27 -11 -43 -34 -44 -47
-2 -10 38 -20 42 -28 13 -3 -11 -2 -18 3 -15 4 3 15 -6 24 -20 22 -34 45 -32
59 5 10 26 16 30 49 30 31 0 38 -4 38 -19 0 -30 25 -45 44 -26 9 10 21 13 28
8 23 -14 190 -13 227 3 25 11 43 12 70 4 46 -13 106 -13 153 0 30 9 44 8 67
-5 37 -18 65 -20 55 -2 -6 9 -4 9 7 -1 18 -16 62 -15 105 3 29 12 35 19 31 35
-3 11 -1 18 4 14 5 -3 9 2 9 10 0 20 -44 53 -81 61 -18 4 -28 12 -25 18 56
128 60 142 60 247 1 125 -16 186 -100 354 -30 60 -54 110 -54 112 0 2 26 4 59
4 121 0 223 58 257 145 13 34 15 61 11 110 l-6 66 55 72 c86 110 110 167 83
194 -8 8 -9 20 -1 42 6 17 7 33 2 36 -4 3 -13 -9 -19 -25 -5 -17 -15 -30 -20
-30 -15 0 -14 33 1 48 6 6 8 15 4 19 -11 11 -36 -26 -36 -53 0 -12 8 -25 18
-29 14 -6 12 -9 -12 -16 -17 -5 -31 -7 -33 -5 -2 1 4 26 13 55 17 59 18 56
-13 65 -17 5 -26 1 -38 -17 -17 -26 -11 -57 10 -57 9 0 13 -10 12 -27 -2 -24
-10 -31 -55 -50 -90 -37 -90 -37 -94 -6 -4 34 -40 43 -68 18 -14 -13 -22 -14
-44 -4 -23 11 -26 18 -26 67 0 36 12 90 34 156 19 55 37 110 41 121 3 11 -1 7
-10 -8 -23 -40 -65 -172 -75 -237 -8 -50 -9 -47 -6 30 2 52 1 73 -4 55 -4 -16
-8 -58 -9 -92 -1 -64 -14 -82 -31 -40 -8 20 -9 21 -10 2 -2 -17 -3 -16 -10 5
-6 18 -8 20 -9 7 -2 -35 -19 -6 -35 60 -21 83 -75 197 -96 201 -30 5 -62 -74
-104 -260 -4 -16 -11 -28 -17 -28 -11 0 -8 35 7 88 9 33 -9 27 -24 -8 -15 -33
-32 -40 -33 -12 0 9 -6 1 -12 -18 -12 -34 -12 -35 18 -46 l30 -11 -37 -22
c-20 -12 -44 -33 -52 -47 -20 -29 -33 -31 -41 -5 -3 10 -16 30 -28 43 -52 56
-117 136 -117 143 0 4 -19 31 -43 59 -24 28 -58 72 -75 97 -36 53 -47 60 -82
47z m77 -66 c42 -54 58 -75 135 -179 29 -39 72 -96 95 -126 40 -53 42 -58 36
-106 -7 -62 -11 -60 -89 53 -31 44 -60 85 -65 90 -8 9 -90 -46 -124 -84 -16
-18 -19 -34 -16 -106 l3 -84 -51 0 -51 0 -1 158 c-1 86 -4 202 -8 257 -8 110
-2 133 37 158 42 26 59 21 99 -31z m-174 -47 c-3 -9 -8 -14 -10 -11 -3 3 -2 9
2 15 9 16 15 13 8 -4z m1230 -130 c-3 -8 -9 -15 -14 -15 -10 0 -12 24 -3 33
11 11 24 -3 17 -18z m-180 -118 c3 -8 1 -20 -3 -27 -7 -11 -11 -11 -24 -1 -12
11 -14 17 -5 27 14 18 25 18 32 1z m-405 -11 c37 -19 68 -55 87 -98 15 -37 20
-99 9 -111 -9 -9 -115 31 -149 58 -18 13 -36 36 -39 51 -12 47 21 112 57 114
4 0 20 -6 35 -14z m-388 -101 c12 -13 27 -22 31 -19 5 3 6 -1 3 -9 -3 -8 2
-20 11 -27 8 -7 15 -18 15 -24 0 -6 8 -19 19 -28 10 -8 20 -21 23 -28 2 -8 16
-2 38 19 37 34 40 33 60 -19 21 -53 64 -113 116 -158 l46 -41 -45 -73 c-106
-175 -164 -319 -174 -430 -3 -38 -8 -68 -11 -68 -3 0 -17 11 -31 24 -35 33
-132 80 -211 101 -188 52 -300 167 -300 309 0 73 26 135 77 188 25 26 43 36
57 33 12 -2 44 -6 72 -10 46 -5 52 -3 64 20 17 32 36 32 92 -4 87 -56 132
-183 93 -265 -51 -107 -225 -95 -225 15 0 68 56 100 109 63 22 -16 23 -16 12
4 -27 50 -120 41 -141 -13 -26 -68 -5 -126 57 -156 78 -38 174 -6 213 70 52
104 -13 266 -129 320 -28 14 -47 29 -44 34 4 6 7 39 8 74 1 55 5 67 30 93 16
16 32 30 35 30 4 0 17 -11 30 -25z m851 -121 c39 -19 45 -48 19 -84 -43 -60
-93 -65 -182 -18 -70 37 -80 54 -47 79 58 46 148 56 210 23z m-320 -94 c17 0
9 -18 -11 -23 -11 -3 -20 -4 -20 -2 0 2 -3 11 -7 21 -5 14 -3 16 11 11 10 -4
22 -7 27 -7z"/>
<path d="M454 1723 c3 -21 9 -77 12 -125 4 -49 11 -88 16 -88 4 0 28 18 53 41
44 40 48 59 20 84 -6 6 -31 36 -54 68 -24 31 -46 57 -48 57 -3 0 -3 -17 1 -37z
m56 -172 c0 -5 -7 -11 -15 -15 -15 -5 -20 5 -8 17 9 10 23 9 23 -2z"/>
<path d="M997 1425 c-20 -28 -34 -85 -20 -85 11 0 38 47 47 83 8 33 -3 34 -27
2z"/>
<path d="M1388 1253 c-19 -20 -38 -66 -38 -90 0 -26 37 13 50 53 15 44 9 61
-12 37z"/>
<path d="M1428 1693 c19 -8 14 -23 -9 -23 -15 0 -20 -5 -17 -22 5 -34 50 -32
58 2 8 29 -5 50 -29 49 -10 0 -11 -2 -3 -6z m7 -43 c3 -5 1 -10 -4 -10 -6 0
-11 5 -11 10 0 6 2 10 4 10 3 0 8 -4 11 -10z"/>
<path d="M1211 1661 c1 -23 17 -60 18 -41 1 8 4 24 7 36 4 14 1 21 -10 21 -9
0 -16 -7 -15 -16z"/>
<path d="M1485 1670 c-3 -5 -1 -19 6 -31 10 -19 9 -21 -5 -16 -8 3 -18 2 -21
-3 -8 -13 36 -23 48 -11 9 9 8 17 -1 31 -10 17 -10 20 4 20 8 0 12 5 9 10 -8
13 -32 13 -40 0z"/>
<path d="M1776 1605 c-9 -14 -14 -25 -12 -25 3 0 1 -13 -4 -30 -11 -39 5 -48
19 -10 5 17 15 30 21 30 7 0 9 8 5 20 -5 14 -2 20 10 20 9 0 13 5 10 10 -11
17 -32 11 -49 -15z"/>
<path d="M1694 1596 c-11 -29 0 -61 24 -64 12 -2 22 1 22 7 0 6 -5 10 -11 9
-6 -2 -13 2 -16 9 -3 7 3 9 17 6 18 -5 21 -2 18 18 -4 28 -45 40 -54 15z"/>
<path d="M1384 1589 c-10 -17 13 -36 27 -22 12 12 4 33 -11 33 -5 0 -12 -5
-16 -11z"/>
<path d="M1820 1574 c0 -4 8 -13 18 -21 9 -8 12 -12 5 -9 -18 10 -43 -5 -43
-25 0 -10 3 -19 8 -19 4 0 17 -3 29 -6 17 -5 22 0 28 27 6 25 3 35 -11 46 -19
14 -34 17 -34 7z m20 -54 c0 -5 -4 -10 -10 -10 -5 0 -10 5 -10 10 0 6 5 10 10
10 6 0 10 -4 10 -10z"/>
<path d="M1663 864 c-7 -19 20 -49 36 -40 16 11 13 43 -5 50 -22 8 -24 8 -31
-10z"/>
<path d="M1734 845 c-9 -22 22 -53 37 -38 15 15 7 47 -14 51 -9 2 -20 -4 -23
-13z"/>
<path d="M1604 835 c-9 -21 3 -45 21 -45 21 0 30 27 15 45 -16 19 -29 19 -36
0z"/>
<path d="M1680 797 c-45 -22 -64 -93 -37 -131 13 -18 15 -17 53 7 21 15 54 31
72 38 50 17 37 56 -29 83 -28 12 -40 12 -59 3z"/>
<path d="M1573 764 c-7 -19 20 -49 36 -40 16 11 13 43 -5 50 -22 8 -24 8 -31
-10z"/>
<path d="M1486 621 c-10 -16 5 -41 26 -41 14 0 19 6 16 22 -3 24 -32 36 -42
19z"/>
<path d="M1561 607 c-15 -19 -3 -47 21 -47 15 0 19 6 16 27 -4 31 -20 40 -37
20z"/>
<path d="M1424 586 c-8 -21 3 -36 27 -36 15 0 20 6 17 22 -4 27 -35 37 -44 14z"/>
<path d="M1488 549 c-10 -5 -22 -27 -28 -48 -17 -65 16 -117 49 -77 7 8 36 25
66 37 50 20 53 24 43 45 -11 24 -64 54 -95 54 -10 0 -26 -5 -35 -11z"/>
<path d="M370 493 c0 -57 -1 -59 -46 -95 -58 -47 -83 -79 -90 -116 -5 -25 -2
-33 21 -48 26 -17 32 -17 86 -3 67 18 67 19 48 -60 -5 -24 -7 -52 -4 -62 7
-21 40 -26 51 -8 4 7 0 9 -14 5 -13 -4 -22 -1 -26 9 -6 18 24 117 55 178 25
48 19 59 -11 17 -22 -31 -78 -65 -115 -71 -27 -4 -75 9 -75 21 0 6 10 5 25 -2
21 -9 28 -8 45 7 27 24 25 32 -11 54 l-30 19 56 48 c54 47 56 50 51 89 l-6 40
15 -32 c8 -17 25 -34 37 -38 62 -18 58 -20 58 32 0 35 3 44 10 33 6 -8 8 -26
5 -40 -3 -14 -1 -38 4 -55 8 -26 9 -21 10 33 2 101 -31 141 -43 52 -9 -71 -44
-63 -76 18 -19 48 -30 39 -30 -25z"/>
<path d="M1395 520 c-8 -13 13 -40 31 -40 17 0 25 15 18 34 -7 18 -39 22 -49
6z"/>
<path d="M1734 515 c-8 -21 2 -45 20 -45 19 0 29 29 15 46 -15 18 -28 18 -35
-1z"/>
<path d="M1804 495 c-8 -21 2 -45 20 -45 19 0 29 29 15 46 -15 18 -28 18 -35
-1z"/>
<path d="M1671 486 c-15 -18 -3 -46 20 -46 13 0 19 7 19 24 0 28 -24 41 -39
22z"/>
<path d="M1726 437 c-12 -9 -20 -30 -23 -63 -6 -76 1 -79 90 -36 42 20 76 42
77 48 0 6 -11 21 -24 33 -30 28 -94 38 -120 18z"/>
<path d="M1644 415 c-9 -21 3 -45 21 -45 21 0 30 27 15 45 -16 19 -29 19 -36
0z"/>
<path d="M380 369 c0 -5 5 -7 10 -4 6 3 10 8 10 11 0 2 -4 4 -10 4 -5 0 -10
-5 -10 -11z"/>
<path d="M410 366 c0 -9 7 -16 16 -16 9 0 14 5 12 12 -6 18 -28 21 -28 4z"/>
<path d="M520 369 c0 -9 9 -28 21 -43 17 -22 29 -26 68 -26 46 0 82 20 81 46
0 5 -5 1 -11 -8 -11 -20 -68 -33 -99 -23 -12 4 -30 21 -41 38 -11 19 -19 25
-19 16z"/>
<path d="M1547 303 c-13 -12 -7 -44 9 -50 21 -8 35 16 23 39 -10 19 -21 23
-32 11z"/>
<path d="M1610 266 c0 -32 18 -43 38 -23 13 13 13 19 2 31 -19 24 -40 19 -40
-8z"/>
<path d="M1476 263 c-8 -19 17 -48 33 -39 16 11 13 43 -5 50 -21 8 -21 8 -28
-11z"/>
<path d="M1550 225 c-28 -15 -38 -37 -39 -85 -1 -59 11 -68 56 -38 21 15 50
30 65 33 46 12 55 32 27 61 -33 33 -79 45 -109 29z"/>
<path d="M1454 195 c-9 -24 22 -53 38 -37 9 9 10 17 2 29 -15 24 -33 27 -40 8z"/>
</g>
</svg>
